<?xml version="1.0" standalone="no"?>
<!DOCTYPE svg PUBLIC "-//W3C//DTD SVG 20010904//EN"
 "http://www.w3.org/TR/2001/REC-SVG-20010904/DTD/svg10.dtd">
<svg version="1.0" xmlns="http://www.w3.org/2000/svg"
 width="934.000000pt" height="932.000000pt" viewBox="0 0 934.000000 932.000000"
 preserveAspectRatio="xMidYMid meet">

<g transform="translate(0.000000,932.000000) scale(0.100000,-0.100000)"
fill="#000000" stroke="none">
<path d="M4908 8862 c-150 -166 -205 -381 -195 -765 4 -168 9 -220 30 -307 51
-216 112 -335 236 -459 l72 -72 -36 -85 c-61 -141 -100 -389 -78 -489 11 -48
33 -53 45 -10 11 45 64 103 118 130 62 31 138 51 151 38 14 -14 -16 -91 -59
-148 -122 -161 -326 -159 -505 5 l-61 56 21 55 c46 117 52 197 28 403 -16 132
-29 170 -75 211 -20 18 -21 18 -36 -3 -8 -12 -30 -29 -47 -38 -18 -9 -45 -28
-62 -42 -16 -13 -31 -20 -33 -14 -4 14 40 100 99 192 26 41 52 95 58 120 11
49 14 192 5 228 -9 31 -20 28 -28 -8 -3 -17 -24 -55 -46 -84 l-41 -54 -64 1
c-50 2 -69 -2 -92 -19 -73 -53 -95 -182 -40 -230 14 -12 31 -24 37 -26 7 -2 4
-32 -11 -93 -15 -60 -22 -125 -23 -195 -1 -98 1 -109 29 -165 17 -32 35 -61
40 -62 6 -2 19 11 29 28 25 42 183 200 219 219 25 12 29 12 38 0 22 -35 -21
-181 -69 -239 l-29 -34 -37 39 -38 39 7 -30 c20 -92 20 -91 -24 -109 -75 -30
-125 -36 -187 -25 -117 22 -210 92 -261 197 -23 50 -27 72 -31 177 -9 240 53
367 351 723 130 157 247 306 247 316 0 19 -33 -13 -180 -175 -310 -341 -404
-492 -467 -749 -62 -255 -16 -506 121 -657 58 -64 96 -88 169 -107 103 -27
255 18 340 100 l36 35 46 -91 c88 -170 178 -240 317 -248 72 -4 83 -2 143 27
161 79 252 264 262 532 5 130 4 139 -19 190 -14 30 -45 76 -68 102 l-43 49 50
50 50 49 129 -168 c72 -92 202 -260 290 -373 962 -1234 1179 -1539 1369 -1925
194 -393 298 -797 312 -1210 16 -483 -85 -916 -310 -1330 -341 -626 -783
-1036 -1396 -1296 -142 -60 -148 -84 -23 -99 50 -7 97 -5 164 5 121 18 199 44
333 110 462 228 866 662 1126 1211 237 498 330 961 300 1483 -13 221 -29 333
-77 539 -146 628 -397 1119 -838 1637 -70 83 -144 170 -165 195 -20 25 -161
194 -312 375 -286 343 -646 789 -812 1007 -230 300 -406 606 -461 800 -53 184
-61 434 -18 532 24 54 15 66 -20 28z m-55 -706 c48 -146 141 -323 290 -554
l79 -123 -28 -40 c-38 -56 -51 -59 -86 -18 -124 146 -229 371 -277 592 -21 96
-28 227 -13 227 4 0 20 -38 35 -84z m361 -998 c20 -23 36 -47 36 -53 0 -6 -17
-17 -37 -24 -53 -19 -115 -64 -157 -113 -20 -23 -39 -39 -42 -35 -17 17 128
267 156 267 4 0 25 -19 44 -42z m1447 -1285 c13 -16 12 -17 -3 -4 -10 7 -18
15 -18 17 0 8 8 3 21 -13z m185 -230 c15 -20 23 -33 16 -29 -13 8 -56 66 -49
66 3 0 17 -17 33 -37z m101 -140 c65 -96 82 -124 66 -108 -18 16 -145 208
-135 201 5 -3 36 -45 69 -93z m113 -173 c6 -11 8 -20 6 -20 -3 0 -10 9 -16 20
-6 11 -8 20 -6 20 3 0 10 -9 16 -20z m30 -50 c6 -11 8 -20 6 -20 -3 0 -10 9
-16 20 -6 11 -8 20 -6 20 3 0 10 -9 16 -20z m58 -105 c-3 -3 -9 2 -12 12 -6
14 -5 15 5 6 7 -7 10 -15 7 -18z m32 -59 c0 -12 -5 -7 -19 24 -11 24 -11 24 3
6 9 -11 16 -24 16 -30z m327 -1898 c-3 -8 -6 -5 -6 6 -1 11 2 17 5 13 3 -3 4
-12 1 -19z"/>
<path d="M3496 6731 c-3 -4 11 -23 30 -42 127 -122 223 -337 224 -502 0 -41 3
-56 11 -51 9 5 10 39 6 118 -13 212 -76 371 -176 440 -44 31 -89 48 -95 37z"/>
<path d="M3115 6568 c3 -13 12 -72 20 -131 19 -132 27 -149 79 -183 87 -57
438 -423 606 -634 89 -113 165 -213 168 -222 6 -25 -17 -114 -44 -174 -29 -62
-106 -137 -171 -166 -66 -30 -172 -30 -211 -1 -34 25 -41 88 -17 169 13 44 28
68 76 115 68 67 72 84 33 162 -29 57 -105 166 -116 167 -4 0 -13 -11 -20 -24
-7 -13 -30 -53 -50 -88 -90 -154 -90 -350 -2 -526 72 -141 188 -215 331 -211
40 1 76 0 79 -3 8 -9 -32 -83 -67 -123 -38 -43 -106 -65 -203 -65 -95 -1 -146
-24 -185 -85 -40 -63 -55 -132 -48 -224 6 -86 31 -158 82 -234 19 -28 35 -60
35 -70 0 -11 -15 -34 -34 -53 -29 -29 -41 -34 -80 -34 -26 0 -60 7 -75 14 -36
19 -83 73 -100 114 -7 18 -17 32 -22 32 -12 0 -13 4 25 -113 42 -128 64 -172
115 -231 44 -51 44 -69 2 -91 -100 -51 -187 -16 -255 105 -18 31 -26 39 -26
25 0 -29 83 -238 110 -276 22 -30 23 -33 7 -58 -49 -76 -60 -113 -49 -160 6
-25 9 -48 7 -50 -2 -2 -32 6 -65 18 -159 53 -290 160 -330 269 -12 34 -27 62
-31 62 -11 0 -12 17 11 -156 23 -173 45 -228 122 -305 81 -81 259 -158 334
-144 28 5 42 0 77 -23 74 -52 136 -112 200 -196 79 -102 120 -190 125 -273 4
-56 0 -71 -31 -135 -84 -176 -249 -310 -477 -389 -99 -34 -256 -38 -352 -9
-133 40 -248 111 -349 217 -159 164 -229 349 -229 603 0 285 82 492 340 855
211 298 286 426 336 570 51 149 32 363 -44 498 -46 80 -162 247 -173 247 -5 0
-26 -11 -47 -23 -20 -13 -70 -43 -109 -66 l-73 -42 52 -83 c28 -46 58 -93 67
-105 l16 -21 93 45 c52 25 104 45 117 45 32 0 55 -44 55 -104 0 -112 -41 -216
-181 -457 -247 -430 -311 -551 -382 -729 -91 -227 -130 -418 -129 -630 0 -237
57 -449 166 -623 124 -199 321 -370 502 -436 291 -106 575 -44 784 169 87 89
141 176 173 275 18 58 22 92 21 200 -1 159 -21 241 -97 400 -66 137 -151 256
-255 359 l-81 80 37 17 c20 9 52 31 70 48 39 36 38 51 -3 136 -13 27 -23 50
-22 50 1 1 27 10 57 21 48 16 58 25 78 64 26 51 24 93 -8 178 -21 55 -20 56
25 66 78 17 134 86 135 167 0 53 -28 137 -67 202 -19 31 -33 65 -31 75 5 25
99 72 160 79 29 3 69 14 89 24 128 64 252 344 315 709 14 79 27 146 29 148 2
2 10 -7 18 -20 7 -12 61 -97 119 -188 137 -215 168 -267 162 -273 -3 -3 -30 2
-61 10 -94 24 -193 -8 -269 -89 -51 -54 -77 -97 -110 -184 -91 -241 -60 -496
80 -649 54 -59 68 -52 53 28 -11 62 -3 198 18 285 21 89 79 210 123 256 66 68
118 96 184 96 78 0 86 -14 94 -156 16 -276 -102 -632 -267 -809 -15 -16 -32
-42 -38 -58 -6 -15 -22 -32 -36 -37 -30 -12 -33 -40 -4 -40 32 0 187 106 249
170 160 166 240 536 179 827 -7 34 -10 65 -6 69 3 4 36 -12 71 -36 137 -88
319 -136 430 -111 83 19 175 69 232 127 65 67 154 238 190 365 69 249 96 303
201 398 l65 59 -16 53 c-21 71 -108 243 -121 241 -5 -1 -10 -11 -10 -22 0 -11
-30 -51 -67 -89 -93 -97 -137 -190 -194 -420 -50 -204 -54 -215 -105 -292 -63
-93 -177 -149 -307 -149 -213 0 -388 121 -531 365 -102 175 -250 412 -276 443
l-25 29 15 84 c26 142 30 320 11 424 -16 83 -92 282 -133 344 -19 30 -41 14
-24 -18 22 -40 32 -236 21 -395 -12 -173 -19 -218 -31 -210 -5 2 -70 82 -145
177 -76 95 -182 224 -237 287 -129 148 -492 510 -512 510 -11 0 -14 -7 -10
-22z m505 -1087 c0 -5 -7 -11 -15 -15 -15 -5 -20 5 -8 17 9 10 23 9 23 -2z
m2120 -206 c-7 -9 -15 -13 -17 -11 -7 7 7 26 19 26 6 0 6 -6 -2 -15z m-2261
-92 c0 -47 -2 -54 -10 -34 -8 21 -3 91 7 91 2 0 4 -26 3 -57z m-894 -394 c14
-43 -45 -66 -61 -24 -8 19 13 45 37 45 10 0 21 -10 24 -21z m1695 -163 c0 -2
-9 -6 -20 -9 -11 -3 -18 -1 -14 4 5 9 34 13 34 5z m-70 -29 c0 -2 -14 -16 -32
-33 -18 -16 -26 -20 -18 -9 19 25 50 52 50 42z m453 -72 c26 -21 80 -55 120
-76 90 -48 79 -51 -17 -4 -39 19 -96 57 -126 86 -60 56 -52 54 23 -6z m-1085
16 c10 -6 6 -10 -15 -15 -15 -4 -41 -18 -58 -30 -48 -36 -56 -39 -48 -20 5 14
88 74 102 74 4 0 12 -4 19 -9z m627 -20 c-3 -6 -11 -11 -17 -11 -6 0 -6 6 2
15 14 17 26 13 15 -4z m1120 -19 l-28 -27 24 31 c13 17 26 30 28 27 3 -2 -8
-16 -24 -31z m-1465 -51 c-31 -40 -97 -88 -106 -78 -3 2 17 21 43 40 27 19 57
45 67 56 32 35 30 23 -4 -18z m-391 -288 c13 -28 13 -28 -8 -9 -22 20 -27 36
-13 36 5 0 14 -12 21 -27z m115 -206 c-3 -8 -12 -18 -20 -21 -11 -4 -10 0 3
18 20 26 27 28 17 3z m-244 -159 c0 -14 -19 1 -31 25 -12 22 -12 22 10 3 11
-11 21 -23 21 -28z m60 -198 c0 -5 -5 -10 -11 -10 -5 0 -7 5 -4 10 3 6 8 10
11 10 2 0 4 -4 4 -10z m-130 -224 c0 -16 -28 -42 -36 -33 -7 6 18 47 28 47 5
0 8 -6 8 -14z m-475 -122 c9 -15 12 -23 6 -20 -11 7 -35 46 -28 46 3 0 12 -12
22 -26z m40 -54 c10 -11 16 -20 13 -20 -3 0 -13 9 -23 20 -10 11 -16 20 -13
20 3 0 13 -9 23 -20z m305 -110 c0 -5 -4 -10 -9 -10 -6 0 -13 5 -16 10 -3 6 1
10 9 10 9 0 16 -4 16 -10z m235 -129 c-3 -2 -6 -2 -7 0 -2 2 -25 29 -53 59
l-50 55 57 -54 c32 -30 55 -57 53 -60z m26 -28 c13 -16 12 -17 -3 -4 -17 13
-22 21 -14 21 2 0 10 -8 17 -17z m30 -40 c13 -16 12 -17 -3 -4 -17 13 -22 21
-14 21 2 0 10 -8 17 -17z"/>
<path d="M2249 6527 c-52 -35 -79 -82 -79 -139 0 -103 49 -148 243 -219 138
-51 211 -105 222 -164 11 -59 -7 -60 -79 -6 -108 82 -224 102 -295 52 -64 -46
-65 -163 -1 -196 72 -37 128 -5 150 86 10 41 16 49 34 49 37 0 101 -53 120
-99 27 -69 14 -163 -30 -212 -13 -14 -14 -19 -3 -19 20 0 116 108 141 159 14
29 24 71 26 114 4 58 0 75 -23 122 -32 66 -97 119 -195 160 -164 68 -210 102
-210 153 0 32 53 80 97 88 27 5 41 2 65 -16 16 -12 32 -19 35 -16 14 14 -24
71 -66 97 -56 36 -105 38 -152 6z m102 -620 c-13 -13 -15 1 -4 30 7 17 8 17
11 -1 2 -10 -1 -23 -7 -29z"/>
<path d="M4325 6474 c-29 -31 -46 -102 -35 -151 11 -45 16 -49 69 -60 25 -4
46 -14 49 -21 2 -7 -24 -40 -58 -73 -34 -33 -60 -62 -58 -65 8 -8 105 26 138
48 19 13 42 37 52 54 27 46 12 76 -51 105 -28 12 -51 26 -51 31 0 5 9 18 20
30 26 28 27 89 2 111 -26 24 -49 21 -77 -9z"/>
<path d="M4861 6173 c-53 -48 -58 -161 -12 -283 30 -78 131 -222 131 -185 0 3
-13 27 -30 53 -51 83 -92 183 -97 239 -5 47 -3 57 17 78 13 14 33 25 44 25 38
0 103 -50 158 -120 46 -59 34 -7 -17 76 -42 67 -104 134 -125 134 -4 0 -15 3
-23 6 -9 3 -28 -7 -46 -23z"/>
<path d="M5432 5843 c-46 -124 -152 -250 -367 -433 -165 -142 -260 -278 -289
-416 -21 -100 -10 -100 49 0 51 88 116 158 249 272 158 136 229 221 299 359
32 63 73 175 91 248 12 49 -11 28 -32 -30z"/>
<path d="M6125 5834 c-78 -187 -106 -434 -64 -570 29 -95 44 -121 80 -140 100
-51 232 119 212 274 -7 53 -19 54 -28 2 -4 -23 -18 -54 -32 -71 -100 -118
-213 -26 -213 174 0 79 31 244 60 317 22 57 8 69 -15 14z"/>
<path d="M4532 5837 c-15 -16 -22 -36 -22 -63 0 -59 11 -70 45 -48 40 26 118
24 180 -6 64 -30 192 -159 225 -228 28 -58 45 -68 35 -19 -16 71 -71 153 -171
253 -118 117 -242 164 -292 111z"/>
<path d="M3145 5821 c-3 -6 -45 -34 -93 -62 -130 -76 -128 -73 -88 -123 18
-22 52 -70 76 -106 24 -36 44 -66 45 -68 2 -2 170 106 218 140 17 12 14 20
-55 117 -73 104 -90 122 -103 102z m13 -163 c18 -18 15 -46 -6 -57 -33 -18
-58 29 -30 57 7 7 15 12 18 12 3 0 11 -5 18 -12z"/>
<path d="M2735 5520 c-78 -32 -110 -159 -62 -245 28 -49 94 -90 216 -134 49
-18 108 -45 130 -61 63 -46 89 -112 56 -140 -13 -11 -25 -4 -73 42 -86 83
-144 106 -211 88 -101 -27 -136 -157 -54 -201 63 -34 149 -3 168 59 5 18 15
32 22 32 20 0 80 -87 100 -143 12 -35 18 -83 18 -145 0 -110 1 -109 71 111 39
123 45 157 40 195 -11 84 -92 171 -193 207 -136 50 -196 90 -208 138 -16 63
77 153 132 128 22 -10 24 -9 21 11 -6 46 -114 83 -173 58z m163 -556 c-4 -23
-32 -39 -53 -30 -17 6 -17 7 0 26 22 25 58 27 53 4z"/>
<path d="M6845 5112 c-11 -20 -65 -84 -121 -142 -83 -87 -109 -122 -152 -207
-60 -117 -80 -133 -163 -133 -102 0 -176 76 -195 198 -9 60 -24 52 -24 -15 0
-38 11 -89 36 -162 76 -223 132 -285 252 -280 l56 3 -3 -100 c-1 -54 -6 -103
-11 -108 -14 -14 -54 18 -86 68 -51 81 -57 55 -18 -80 14 -49 41 -124 61 -168
40 -89 49 -139 34 -178 -28 -74 -121 -72 -163 2 -13 22 -26 40 -29 40 -9 0
-19 -81 -19 -144 1 -73 16 -129 50 -184 17 -27 30 -52 30 -56 0 -12 -48 -5
-130 19 -46 14 -102 25 -124 25 -83 -1 -169 -64 -197 -147 -24 -68 -15 -195
20 -308 38 -119 50 -234 31 -301 -18 -64 -80 -128 -140 -144 -98 -26 -190 8
-275 102 -71 79 -73 87 -37 150 74 131 106 289 105 523 0 180 -16 307 -53 428
-24 79 -44 89 -37 20 4 -46 -22 -290 -44 -418 -29 -165 -88 -328 -125 -342
-12 -5 -38 19 -66 61 -5 8 -11 7 -20 -2 -10 -10 -8 -21 12 -57 30 -54 24 -70
-40 -103 -63 -32 -142 -31 -175 3 -42 41 -30 120 27 171 57 53 141 70 186 38
22 -15 24 -15 37 2 8 11 15 28 15 40 1 57 -56 294 -71 294 -5 0 -15 -13 -23
-29 -12 -22 -25 -30 -57 -35 -86 -14 -159 -67 -198 -144 -64 -127 -77 -239
-41 -355 28 -90 74 -153 147 -203 94 -64 143 -68 256 -19 26 11 22 -11 -17
-90 -38 -81 -56 -99 -115 -120 -55 -19 -88 -19 -165 1 -231 59 -505 296 -877
759 -138 172 -289 407 -389 606 -44 87 -54 78 -46 -43 13 -193 64 -352 167
-528 134 -227 356 -483 674 -778 302 -280 424 -412 538 -583 121 -182 168
-324 170 -509 2 -188 -51 -319 -176 -436 -190 -180 -463 -199 -705 -49 -236
145 -353 342 -352 594 1 183 35 304 159 576 107 234 116 262 115 370 0 110
-24 196 -74 275 -89 136 -178 152 -367 65 -41 -19 -73 -40 -73 -48 0 -41 63
-50 245 -33 84 8 91 7 109 -13 16 -18 18 -32 14 -118 -6 -106 -26 -176 -143
-493 -111 -302 -150 -500 -143 -730 4 -121 10 -158 31 -225 41 -124 110 -237
203 -331 133 -135 262 -204 449 -239 111 -21 347 -16 440 9 299 81 475 334
475 684 0 99 -31 283 -64 379 -77 226 -253 498 -440 683 -42 41 -76 78 -76 83
0 5 24 -4 53 -21 59 -33 156 -69 204 -76 117 -16 224 71 278 227 15 42 29 77
31 77 1 0 16 -24 33 -52 41 -73 124 -163 177 -194 55 -32 154 -64 200 -64 70
0 124 21 177 70 119 109 135 213 76 505 -28 140 -23 190 28 246 48 53 97 66
173 45 102 -29 149 -16 176 50 18 43 17 122 -1 154 -23 41 -19 69 12 81 71 27
103 89 103 196 0 60 -6 92 -25 138 -33 79 -32 85 10 85 57 0 85 35 85 107 0
32 -9 92 -20 133 -24 91 -25 156 -5 258 29 144 82 225 198 304 84 57 88 71 49
182 -17 50 -39 123 -48 161 -9 39 -20 73 -23 77 -4 4 -15 -9 -26 -30z m-309
-550 c-14 -14 -16 -14 -16 -1 0 20 23 44 29 28 2 -6 -4 -18 -13 -27z m-158
-107 c20 -14 31 -25 25 -25 -17 0 -73 50 -72 63 0 8 2 8 6 -1 3 -7 21 -24 41
-37z m278 -361 c-3 -9 -6 -18 -6 -20 0 -2 -7 -4 -15 -4 -13 0 -13 3 -3 20 15
24 33 27 24 4z m34 -84 c0 -5 -4 -10 -10 -10 -5 0 -10 5 -10 10 0 6 5 10 10
10 6 0 10 -4 10 -10z m-235 -550 c10 -11 16 -20 13 -20 -3 0 -13 9 -23 20 -10
11 -16 20 -13 20 3 0 13 -9 23 -20z m-300 -20 c3 -5 -3 -10 -15 -10 -64 0
-126 -67 -157 -170 l-13 -45 5 48 c9 87 60 155 133 177 37 11 40 11 47 0z
m-995 -134 c0 -2 -17 -16 -37 -31 l-38 -27 33 31 c30 29 42 37 42 27z m1340
-10 c0 -18 -28 -41 -38 -31 -4 4 -1 10 6 12 6 3 12 11 12 19 0 8 5 14 10 14 6
0 10 -6 10 -14z m-300 -20 c0 -2 -12 -11 -27 -20 l-28 -17 24 20 c23 21 31 25
31 17z m-719 -213 c-11 -21 -20 -35 -21 -31 0 12 33 78 38 74 2 -2 -6 -21 -17
-43z m-1230 -90 c13 -16 12 -17 -3 -4 -10 7 -18 15 -18 17 0 8 8 3 21 -13z
m1112 -121 c-21 -5 -25 2 -17 34 l7 29 13 -30 c10 -25 10 -31 -3 -33z m-63 34
c0 -2 -7 -7 -16 -10 -8 -3 -12 -2 -9 4 6 10 25 14 25 6z m-1145 -48 c34 -15
32 -29 -3 -19 -29 9 -113 0 -172 -18 -65 -20 -101 -5 -42 17 80 32 172 41 217
20z m1991 -214 c-7 -27 -21 -66 -31 -87 -20 -43 -88 -107 -113 -107 -11 0 -7
6 14 19 51 31 93 92 115 164 24 78 35 86 15 11z m-1386 -20 c0 -8 -4 -12 -10
-9 -5 3 -10 10 -10 16 0 5 5 9 10 9 6 0 10 -7 10 -16z m590 -117 l-34 -32 30
36 c16 20 31 34 33 32 3 -2 -10 -18 -29 -36z m-1100 -83 c-17 -50 -24 -35 -9
16 7 24 15 38 17 32 2 -7 -2 -28 -8 -48z m845 -274 c10 -11 16 -20 13 -20 -3
0 -13 9 -23 20 -10 11 -16 20 -13 20 3 0 13 -9 23 -20z m75 -100 c12 -16 19
-30 16 -30 -2 0 -14 14 -26 30 -12 17 -19 30 -16 30 2 0 14 -13 26 -30z m83
-130 c16 -27 26 -50 24 -50 -3 0 -18 21 -33 48 -15 26 -34 58 -42 72 l-14 25
18 -22 c11 -13 32 -45 47 -73z m98 -207 c10 -31 19 -63 19 -72 -1 -9 -11 16
-24 54 -13 39 -27 79 -30 90 -7 18 -6 18 4 2 6 -9 20 -43 31 -74z m-1312 -598
c18 -38 28 -65 22 -60 -20 21 -80 154 -95 212 -25 95 -17 97 13 3 15 -47 42
-116 60 -155z m106 9 c9 -15 12 -23 6 -20 -11 7 -35 46 -28 46 3 0 12 -12 22
-26z m1140 -284 c-11 -17 -106 -90 -117 -90 -6 0 7 13 28 29 21 15 50 40 63
55 23 25 40 29 26 6z"/>
<path d="M2195 4844 c-11 -8 -57 -36 -103 -61 -46 -25 -86 -51 -88 -58 -3 -7
20 -52 50 -101 31 -49 59 -96 64 -104 7 -12 30 -4 128 47 65 34 119 68 118 75
-1 17 -132 218 -142 218 -4 0 -16 -8 -27 -16z m25 -139 c19 -23 8 -50 -20 -50
-19 0 -26 6 -28 24 -5 35 26 53 48 26z"/>
<path d="M2358 4507 c-58 -34 -109 -65 -113 -69 -5 -5 93 -163 122 -197 8 -10
253 125 248 136 -10 27 -131 193 -140 192 -5 -1 -58 -29 -117 -62z m112 -82
c18 -22 8 -50 -19 -50 -32 0 -49 28 -32 49 17 20 35 20 51 1z"/>
<path d="M6025 4330 c-60 -32 -114 -65 -119 -73 -6 -9 12 -46 59 -123 38 -60
70 -111 72 -114 2 -2 60 24 129 58 l124 62 -51 83 c-29 45 -63 101 -76 125
-14 23 -25 42 -26 41 -1 -1 -51 -27 -112 -59z m121 -122 c9 -29 -20 -57 -44
-42 -24 15 -27 45 -7 60 21 16 42 8 51 -18z"/>
<path d="M5740 4250 c-30 -17 -90 -48 -133 -71 -53 -27 -77 -45 -73 -54 6 -17
111 -194 128 -217 12 -16 24 -12 146 54 72 40 132 75 132 78 0 12 -128 234
-136 237 -5 2 -34 -11 -64 -27z m59 -144 c22 -26 -19 -69 -49 -51 -11 7 -14
48 -3 58 11 12 40 8 52 -7z"/>
<path d="M5125 4043 c-120 -26 -237 -133 -306 -278 -28 -58 -39 -125 -20 -125
5 0 21 20 35 44 14 24 45 61 68 81 84 71 268 141 268 102 0 -27 -116 -189
-189 -265 -61 -64 -67 -73 -51 -82 50 -27 236 182 285 320 20 56 22 139 4 168
-10 16 -67 48 -73 41 -1 -1 -10 -3 -21 -6z m60 -83 c3 -5 -1 -10 -9 -10 -9 0
-16 5 -16 10 0 6 4 10 9 10 6 0 13 -4 16 -10z m-109 -29 c-3 -5 -16 -11 -28
-14 -22 -6 -22 -5 -4 8 22 17 40 20 32 6z"/>
<path d="M5896 3935 c-65 -35 -121 -67 -124 -69 -2 -3 13 -32 34 -65 22 -33
51 -80 66 -105 l28 -46 108 57 c60 32 119 65 131 73 l23 15 -39 60 c-22 33
-51 79 -64 102 -13 24 -28 43 -34 43 -5 0 -63 -29 -129 -65z m123 -79 c23 -28
-17 -68 -45 -45 -17 14 -18 46 -1 52 22 9 34 7 46 -7z"/>
<path d="M2675 2886 c-38 -91 -57 -208 -53 -322 4 -101 7 -118 37 -178 39 -79
70 -106 123 -106 51 0 83 22 102 71 18 44 22 184 6 194 -6 3 -10 -4 -10 -17 0
-30 -33 -84 -61 -98 -30 -16 -87 -6 -116 22 -57 54 -67 212 -23 384 22 84 19
108 -5 50z"/>
<path d="M4601 2178 c-90 -195 -121 -328 -121 -518 0 -180 34 -301 111 -393
36 -43 96 -77 137 -77 47 0 94 39 116 95 16 40 20 76 20 184 1 99 -2 135 -11
138 -9 3 -13 -10 -13 -49 0 -112 -44 -178 -118 -178 -57 0 -103 37 -144 117
-92 175 -76 371 53 666 22 48 39 90 39 92 0 3 -7 5 -16 5 -10 0 -29 -31 -53
-82z"/>
</g>
</svg>
