<?xml version="1.0" encoding="UTF-8"?>
<svg xmlns="http://www.w3.org/2000/svg" xmlns:xlink="http://www.w3.org/1999/xlink" width="320px" height="320px" viewBox="0 0 320 320" version="1.1">
<g id="surface1">
<path style=" stroke:none;fill-rule:nonzero;fill:rgb(0%,0%,0%);fill-opacity:1;" d="M 168.082031 15.726562 C 162.945312 21.425781 161.0625 28.808594 161.402344 41.992188 C 161.542969 47.757812 161.710938 49.546875 162.433594 52.53125 C 164.179688 59.949219 166.265625 64.035156 170.515625 68.292969 L 172.980469 70.765625 L 171.746094 73.683594 C 169.65625 78.523438 168.320312 87.039062 169.074219 90.472656 C 169.453125 92.121094 170.207031 92.292969 170.617188 90.816406 C 170.992188 89.269531 172.808594 87.277344 174.65625 86.351562 C 176.78125 85.285156 179.382812 84.601562 179.828125 85.046875 C 180.308594 85.527344 179.28125 88.171875 177.808594 90.128906 C 173.628906 95.65625 166.644531 95.589844 160.515625 89.957031 L 158.425781 88.035156 L 159.144531 86.144531 C 160.71875 82.128906 160.925781 79.382812 160.101562 72.308594 C 159.554688 67.777344 159.109375 66.472656 157.535156 65.066406 C 156.847656 64.445312 156.816406 64.445312 156.300781 65.167969 C 156.027344 65.578125 155.273438 66.164062 154.691406 66.472656 C 154.074219 66.78125 153.152344 67.433594 152.566406 67.914062 C 152.019531 68.359375 151.507812 68.601562 151.4375 68.394531 C 151.300781 67.914062 152.808594 64.960938 154.828125 61.800781 C 155.71875 60.394531 156.609375 58.539062 156.816406 57.683594 C 157.191406 56 157.292969 51.089844 156.984375 49.855469 C 156.679688 48.789062 156.300781 48.890625 156.027344 50.128906 C 155.925781 50.714844 155.207031 52.015625 154.453125 53.011719 L 153.046875 54.867188 L 150.855469 54.832031 C 149.144531 54.765625 148.492188 54.902344 147.707031 55.484375 C 145.207031 57.304688 144.453125 61.734375 146.335938 63.382812 C 146.816406 63.792969 147.398438 64.207031 147.601562 64.273438 C 147.84375 64.34375 147.738281 65.375 147.226562 67.46875 C 146.710938 69.527344 146.472656 71.757812 146.4375 74.164062 C 146.402344 77.527344 146.472656 77.90625 147.433594 79.828125 C 148.015625 80.925781 148.628906 81.921875 148.800781 81.957031 C 149.007812 82.027344 149.453125 81.578125 149.792969 80.996094 C 150.652344 79.554688 156.0625 74.128906 157.292969 73.476562 C 158.152344 73.066406 158.289062 73.066406 158.597656 73.476562 C 159.347656 74.679688 157.875 79.691406 156.234375 81.683594 L 155.238281 82.847656 L 153.972656 81.511719 L 152.671875 80.171875 L 152.910156 81.203125 C 153.597656 84.359375 153.597656 84.328125 152.089844 84.945312 C 149.519531 85.972656 147.808594 86.179688 145.683594 85.800781 C 141.679688 85.046875 138.492188 82.644531 136.746094 79.039062 C 135.957031 77.320312 135.820312 76.566406 135.683594 72.960938 C 135.375 64.722656 137.5 60.359375 147.707031 48.136719 C 152.15625 42.746094 156.164062 37.628906 156.164062 37.285156 C 156.164062 36.636719 155.035156 37.734375 150 43.296875 C 139.382812 55.003906 136.164062 60.1875 134.007812 69.011719 C 131.882812 77.769531 133.457031 86.386719 138.152344 91.570312 C 140.136719 93.769531 141.4375 94.59375 143.9375 95.246094 C 147.464844 96.171875 152.671875 94.625 155.582031 91.8125 L 156.816406 90.609375 L 158.390625 93.734375 C 161.402344 99.570312 164.484375 101.972656 169.246094 102.25 C 171.710938 102.386719 172.089844 102.316406 174.144531 101.320312 C 179.65625 98.609375 182.773438 92.257812 183.117188 83.054688 C 183.289062 78.59375 183.253906 78.285156 182.464844 76.53125 C 181.984375 75.503906 180.925781 73.921875 180.136719 73.03125 L 178.664062 71.347656 L 180.375 69.628906 L 182.089844 67.949219 L 186.507812 73.714844 C 188.972656 76.875 193.425781 82.644531 196.4375 86.523438 C 229.382812 128.890625 236.816406 139.363281 243.320312 152.617188 C 249.964844 166.109375 253.527344 179.984375 254.007812 194.164062 C 254.554688 210.746094 251.097656 225.613281 243.390625 239.828125 C 231.710938 261.320312 216.574219 275.398438 195.582031 284.328125 C 190.71875 286.386719 190.515625 287.210938 194.792969 287.726562 C 196.507812 287.964844 198.117188 287.898438 200.410156 287.554688 C 204.554688 286.933594 207.226562 286.042969 211.816406 283.777344 C 227.636719 275.949219 241.472656 261.046875 250.375 242.199219 C 258.492188 225.097656 261.679688 209.203125 260.652344 191.277344 C 260.207031 183.691406 259.65625 179.847656 258.015625 172.773438 C 253.015625 151.210938 244.417969 134.351562 229.316406 116.566406 C 226.917969 113.714844 224.382812 110.730469 223.664062 109.871094 C 222.980469 109.011719 218.152344 103.210938 212.980469 96.996094 C 203.183594 85.21875 190.855469 69.90625 185.171875 62.421875 C 177.292969 52.121094 171.265625 41.613281 169.382812 34.953125 C 167.566406 28.636719 167.292969 20.050781 168.765625 16.6875 C 169.589844 14.832031 169.28125 14.421875 168.082031 15.726562 Z M 166.199219 39.964844 C 167.84375 44.976562 171.027344 51.054688 176.128906 58.988281 L 178.835938 63.210938 L 177.875 64.582031 C 176.574219 66.507812 176.128906 66.609375 174.933594 65.203125 C 170.683594 60.1875 167.089844 52.464844 165.445312 44.875 C 164.726562 41.578125 164.484375 37.082031 165 37.082031 C 165.136719 37.082031 165.683594 38.386719 166.199219 39.964844 Z M 178.5625 74.230469 C 179.246094 75.023438 179.792969 75.847656 179.792969 76.050781 C 179.792969 76.257812 179.210938 76.636719 178.527344 76.875 C 176.710938 77.527344 174.589844 79.074219 173.152344 80.753906 C 172.464844 81.546875 171.816406 82.09375 171.710938 81.957031 C 171.128906 81.375 176.097656 72.789062 177.054688 72.789062 C 177.191406 72.789062 177.910156 73.441406 178.5625 74.230469 Z M 228.117188 118.351562 C 228.5625 118.902344 228.527344 118.933594 228.015625 118.488281 C 227.671875 118.25 227.398438 117.972656 227.398438 117.90625 C 227.398438 117.628906 227.671875 117.800781 228.117188 118.351562 Z M 234.453125 126.25 C 234.964844 126.933594 235.238281 127.382812 235 127.246094 C 234.554688 126.96875 233.082031 124.976562 233.320312 124.976562 C 233.425781 124.976562 233.902344 125.5625 234.453125 126.25 Z M 237.910156 131.054688 C 240.136719 134.351562 240.71875 135.3125 240.171875 134.765625 C 239.554688 134.214844 235.207031 127.621094 235.546875 127.863281 C 235.71875 127.964844 236.78125 129.40625 237.910156 131.054688 Z M 241.78125 136.996094 C 241.984375 137.375 242.054688 137.683594 241.984375 137.683594 C 241.882812 137.683594 241.644531 137.375 241.4375 136.996094 C 241.234375 136.617188 241.164062 136.308594 241.234375 136.308594 C 241.335938 136.308594 241.574219 136.617188 241.78125 136.996094 Z M 242.808594 138.714844 C 243.015625 139.089844 243.082031 139.398438 243.015625 139.398438 C 242.910156 139.398438 242.671875 139.089844 242.464844 138.714844 C 242.261719 138.335938 242.191406 138.027344 242.261719 138.027344 C 242.363281 138.027344 242.601562 138.335938 242.808594 138.714844 Z M 244.792969 142.316406 C 244.691406 142.421875 244.484375 142.25 244.382812 141.90625 C 244.179688 141.425781 244.210938 141.390625 244.554688 141.699219 C 244.792969 141.941406 244.898438 142.214844 244.792969 142.316406 Z M 245.890625 144.34375 C 245.890625 144.753906 245.71875 144.582031 245.238281 143.519531 C 244.863281 142.695312 244.863281 142.695312 245.34375 143.3125 C 245.652344 143.691406 245.890625 144.136719 245.890625 144.34375 Z M 257.089844 209.511719 C 256.984375 209.785156 256.882812 209.683594 256.882812 209.304688 C 256.847656 208.925781 256.953125 208.722656 257.054688 208.859375 C 257.15625 208.960938 257.191406 209.269531 257.089844 209.511719 Z M 257.089844 209.511719 "/>
<path style=" stroke:none;fill-rule:nonzero;fill:rgb(0%,0%,0%);fill-opacity:1;" d="M 119.726562 88.890625 C 119.625 89.03125 120.101562 89.683594 120.753906 90.335938 C 125.101562 94.523438 128.390625 101.90625 128.425781 107.570312 C 128.425781 108.976562 128.527344 109.492188 128.800781 109.320312 C 129.109375 109.152344 129.144531 107.984375 129.007812 105.269531 C 128.5625 97.992188 126.402344 92.53125 122.980469 90.164062 C 121.472656 89.097656 119.933594 88.515625 119.726562 88.890625 Z M 119.726562 88.890625 "/>
<path style=" stroke:none;fill-rule:nonzero;fill:rgb(0%,0%,0%);fill-opacity:1;" d="M 106.679688 94.488281 C 106.78125 94.933594 107.089844 96.960938 107.363281 98.988281 C 108.015625 103.519531 108.289062 104.101562 110.066406 105.269531 C 113.046875 107.226562 125.066406 119.792969 130.820312 127.039062 C 133.871094 130.917969 136.472656 134.351562 136.574219 134.660156 C 136.78125 135.519531 135.992188 138.574219 135.066406 140.636719 C 134.074219 142.765625 131.4375 145.339844 129.210938 146.335938 C 126.953125 147.363281 123.320312 147.363281 121.984375 146.371094 C 120.820312 145.511719 120.582031 143.347656 121.402344 140.566406 C 121.847656 139.054688 122.363281 138.230469 124.007812 136.617188 C 126.335938 134.316406 126.472656 133.734375 125.136719 131.054688 C 124.144531 129.097656 121.542969 125.355469 121.164062 125.320312 C 121.027344 125.320312 120.71875 125.699219 120.480469 126.144531 C 120.238281 126.59375 119.453125 127.964844 118.765625 129.167969 C 115.683594 134.453125 115.683594 141.183594 118.699219 147.226562 C 121.164062 152.066406 125.136719 154.609375 130.035156 154.472656 C 131.402344 154.4375 132.636719 154.472656 132.738281 154.574219 C 133.015625 154.882812 131.644531 157.425781 130.445312 158.796875 C 129.144531 160.273438 126.816406 161.03125 123.492188 161.03125 C 120.238281 161.066406 118.492188 161.855469 117.15625 163.949219 C 115.789062 166.109375 115.273438 168.480469 115.515625 171.640625 C 115.71875 174.59375 116.574219 177.066406 118.320312 179.671875 C 118.972656 180.636719 119.519531 181.734375 119.519531 182.078125 C 119.519531 182.453125 119.007812 183.246094 118.355469 183.898438 C 117.363281 184.890625 116.953125 185.066406 115.617188 185.066406 C 114.726562 185.066406 113.5625 184.824219 113.046875 184.582031 C 111.816406 183.933594 110.207031 182.078125 109.625 180.667969 C 109.382812 180.050781 109.042969 179.570312 108.871094 179.570312 C 108.457031 179.570312 108.425781 179.433594 109.726562 183.449219 C 111.164062 187.847656 111.917969 189.355469 113.664062 191.382812 C 115.171875 193.132812 115.171875 193.75 113.734375 194.507812 C 110.308594 196.257812 107.328125 195.054688 105 190.902344 C 104.382812 189.835938 104.109375 189.5625 104.109375 190.042969 C 104.109375 191.039062 106.953125 198.214844 107.875 199.519531 C 108.628906 200.550781 108.664062 200.652344 108.117188 201.511719 C 106.4375 204.121094 106.0625 205.390625 106.4375 207.003906 C 106.644531 207.863281 106.746094 208.652344 106.679688 208.722656 C 106.609375 208.789062 105.582031 208.515625 104.453125 208.101562 C 99.007812 206.285156 94.519531 202.609375 93.152344 198.867188 C 92.738281 197.699219 92.226562 196.738281 92.089844 196.738281 C 91.710938 196.738281 91.679688 196.152344 92.464844 202.09375 C 93.253906 208.035156 94.007812 209.921875 96.644531 212.566406 C 99.417969 215.347656 105.515625 217.992188 108.082031 217.511719 C 109.042969 217.339844 109.519531 217.511719 110.71875 218.300781 C 113.253906 220.085938 115.375 222.144531 117.566406 225.03125 C 120.273438 228.53125 121.679688 231.554688 121.847656 234.402344 C 121.984375 236.328125 121.847656 236.839844 120.789062 239.039062 C 117.910156 245.082031 112.261719 249.683594 104.453125 252.394531 C 101.0625 253.5625 95.683594 253.699219 92.398438 252.703125 C 87.84375 251.332031 83.902344 248.890625 80.445312 245.253906 C 75 239.621094 72.601562 233.269531 72.601562 224.550781 C 72.601562 214.765625 75.410156 207.65625 84.246094 195.191406 C 91.472656 184.960938 94.042969 180.566406 95.753906 175.621094 C 97.5 170.507812 96.847656 163.160156 94.246094 158.523438 C 92.671875 155.777344 88.699219 150.042969 88.320312 150.042969 C 88.152344 150.042969 87.433594 150.421875 86.710938 150.832031 C 86.027344 151.277344 84.316406 152.308594 82.980469 153.097656 L 80.480469 154.539062 L 82.261719 157.390625 C 83.21875 158.96875 84.246094 160.582031 84.554688 160.996094 L 85.101562 161.714844 L 88.289062 160.171875 C 90.066406 159.3125 91.847656 158.625 92.292969 158.625 C 93.390625 158.625 94.179688 160.136719 94.179688 162.199219 C 94.179688 166.042969 92.773438 169.613281 87.980469 177.890625 C 79.519531 192.652344 77.328125 196.808594 74.898438 202.917969 C 71.78125 210.714844 70.445312 217.269531 70.480469 224.550781 C 70.480469 232.6875 72.433594 239.964844 76.164062 245.941406 C 80.410156 252.773438 87.15625 258.644531 93.355469 260.910156 C 103.320312 264.550781 113.046875 262.421875 120.207031 255.109375 C 123.183594 252.050781 125.035156 249.066406 126.128906 245.664062 C 126.746094 243.671875 126.882812 242.507812 126.847656 238.796875 C 126.816406 233.339844 126.128906 230.523438 123.527344 225.066406 C 121.265625 220.359375 118.355469 216.273438 114.792969 212.738281 L 112.019531 209.992188 L 113.289062 209.40625 C 113.972656 209.097656 115.066406 208.34375 115.683594 207.757812 C 117.019531 206.523438 116.984375 206.007812 115.582031 203.089844 C 115.136719 202.164062 114.792969 201.375 114.828125 201.375 C 114.863281 201.339844 115.753906 201.03125 116.78125 200.652344 C 118.425781 200.101562 118.765625 199.792969 119.453125 198.453125 C 120.34375 196.703125 120.273438 195.261719 119.179688 192.34375 C 118.457031 190.453125 118.492188 190.421875 120.035156 190.078125 C 122.707031 189.492188 124.625 187.125 124.65625 184.34375 C 124.65625 182.523438 123.699219 179.640625 122.363281 177.40625 C 121.710938 176.34375 121.234375 175.175781 121.300781 174.832031 C 121.472656 173.972656 124.691406 172.359375 126.78125 172.121094 C 127.773438 172.015625 129.144531 171.640625 129.828125 171.296875 C 134.210938 169.097656 138.457031 159.484375 140.617188 146.953125 C 141.097656 144.242188 141.542969 141.941406 141.609375 141.871094 C 141.679688 141.800781 141.953125 142.109375 142.226562 142.558594 C 142.464844 142.96875 144.316406 145.890625 146.300781 149.011719 C 150.992188 156.394531 152.054688 158.179688 151.847656 158.386719 C 151.746094 158.488281 150.820312 158.316406 149.761719 158.042969 C 146.542969 157.21875 143.152344 158.316406 140.546875 161.097656 C 138.800781 162.953125 137.910156 164.429688 136.78125 167.417969 C 133.664062 175.691406 134.726562 184.445312 139.519531 189.699219 C 141.371094 191.726562 141.847656 191.484375 141.335938 188.738281 C 140.957031 186.609375 141.234375 181.941406 141.953125 178.953125 C 142.671875 175.898438 144.65625 171.742188 146.164062 170.164062 C 148.425781 167.828125 150.207031 166.867188 152.464844 166.867188 C 155.136719 166.867188 155.410156 167.347656 155.683594 172.222656 C 156.234375 181.699219 152.191406 193.921875 146.542969 200 C 146.027344 200.550781 145.445312 201.441406 145.238281 201.992188 C 145.035156 202.507812 144.484375 203.089844 144.007812 203.261719 C 142.980469 203.671875 142.875 204.636719 143.871094 204.636719 C 144.964844 204.636719 150.273438 200.996094 152.398438 198.796875 C 157.875 193.097656 160.617188 180.394531 158.527344 170.402344 C 158.289062 169.234375 158.183594 168.171875 158.320312 168.035156 C 158.425781 167.898438 159.554688 168.445312 160.753906 169.269531 C 165.445312 172.292969 171.679688 173.941406 175.480469 173.082031 C 178.320312 172.429688 181.472656 170.714844 183.425781 168.722656 C 185.652344 166.421875 188.699219 160.550781 189.933594 156.1875 C 192.292969 147.640625 193.21875 145.785156 196.816406 142.523438 L 199.042969 140.496094 L 198.492188 138.679688 C 197.773438 136.242188 194.792969 130.335938 194.347656 130.402344 C 194.179688 130.4375 194.007812 130.78125 194.007812 131.160156 C 194.007812 131.535156 192.980469 132.910156 191.710938 134.214844 C 188.527344 137.546875 187.019531 140.738281 185.066406 148.636719 C 183.355469 155.640625 183.21875 156.015625 181.472656 158.660156 C 179.316406 161.855469 175.410156 163.777344 170.957031 163.777344 C 163.664062 163.777344 157.671875 159.621094 152.773438 151.246094 C 149.28125 145.234375 144.210938 137.097656 143.320312 136.035156 L 142.464844 135.039062 L 142.980469 132.152344 C 143.871094 127.277344 144.007812 121.167969 143.355469 117.597656 C 142.808594 114.746094 140.207031 107.914062 138.800781 105.785156 C 138.152344 104.753906 137.398438 105.304688 137.980469 106.402344 C 138.734375 107.777344 139.074219 114.507812 138.699219 119.964844 C 138.289062 125.90625 138.046875 127.449219 137.636719 127.175781 C 137.464844 127.109375 135.238281 124.359375 132.671875 121.097656 C 130.066406 117.835938 126.4375 113.40625 124.554688 111.246094 C 120.136719 106.164062 107.707031 93.734375 107.019531 93.734375 C 106.644531 93.734375 106.542969 93.972656 106.679688 94.488281 Z M 123.972656 131.8125 C 123.972656 131.984375 123.734375 132.1875 123.457031 132.328125 C 122.945312 132.496094 122.773438 132.152344 123.183594 131.742188 C 123.492188 131.398438 123.972656 131.433594 123.972656 131.8125 Z M 196.574219 138.882812 C 196.335938 139.191406 196.0625 139.332031 195.992188 139.261719 C 195.753906 139.023438 196.234375 138.371094 196.644531 138.371094 C 196.847656 138.371094 196.847656 138.574219 196.574219 138.882812 Z M 119.144531 142.042969 C 119.144531 143.65625 119.074219 143.898438 118.800781 143.210938 C 118.527344 142.488281 118.699219 140.085938 119.042969 140.085938 C 119.109375 140.085938 119.179688 140.976562 119.144531 142.042969 Z M 88.527344 155.570312 C 89.007812 157.046875 86.984375 157.835938 86.4375 156.394531 C 86.164062 155.742188 86.882812 154.847656 87.707031 154.847656 C 88.046875 154.847656 88.425781 155.191406 88.527344 155.570312 Z M 146.574219 161.167969 C 146.574219 161.234375 146.265625 161.375 145.890625 161.476562 C 145.515625 161.578125 145.273438 161.511719 145.410156 161.339844 C 145.582031 161.03125 146.574219 160.890625 146.574219 161.167969 Z M 144.179688 162.164062 C 144.179688 162.230469 143.699219 162.714844 143.082031 163.296875 C 142.464844 163.847656 142.191406 163.984375 142.464844 163.605469 C 143.117188 162.746094 144.179688 161.820312 144.179688 162.164062 Z M 159.691406 164.636719 C 160.582031 165.355469 162.433594 166.523438 163.800781 167.246094 C 166.882812 168.890625 166.507812 168.996094 163.21875 167.382812 C 161.882812 166.730469 159.933594 165.425781 158.902344 164.429688 C 156.847656 162.507812 157.125 162.574219 159.691406 164.636719 Z M 122.535156 164.085938 C 122.875 164.292969 122.738281 164.429688 122.019531 164.601562 C 121.507812 164.738281 120.617188 165.21875 120.035156 165.628906 C 118.390625 166.867188 118.117188 166.96875 118.390625 166.316406 C 118.5625 165.835938 121.402344 163.777344 121.882812 163.777344 C 122.019531 163.777344 122.292969 163.914062 122.535156 164.085938 Z M 144.007812 164.773438 C 143.902344 164.976562 143.628906 165.152344 143.425781 165.152344 C 143.21875 165.152344 143.21875 164.945312 143.492188 164.636719 C 143.972656 164.050781 144.382812 164.1875 144.007812 164.773438 Z M 182.363281 165.425781 L 181.402344 166.351562 L 182.226562 165.285156 C 182.671875 164.703125 183.117188 164.257812 183.183594 164.359375 C 183.289062 164.429688 182.910156 164.910156 182.363281 165.425781 Z M 132.191406 167.175781 C 131.128906 168.550781 128.871094 170.199219 128.5625 169.855469 C 128.457031 169.785156 129.144531 169.132812 130.035156 168.480469 C 130.957031 167.828125 131.984375 166.933594 132.328125 166.558594 C 133.425781 165.355469 133.355469 165.769531 132.191406 167.175781 Z M 118.800781 177.066406 C 119.246094 178.027344 119.246094 178.027344 118.527344 177.375 C 117.773438 176.6875 117.601562 176.136719 118.082031 176.136719 C 118.253906 176.136719 118.5625 176.550781 118.800781 177.066406 Z M 122.738281 184.136719 C 122.636719 184.410156 122.328125 184.753906 122.054688 184.859375 C 121.679688 184.996094 121.710938 184.859375 122.15625 184.242188 C 122.84375 183.347656 123.082031 183.277344 122.738281 184.136719 Z M 114.382812 189.597656 C 114.382812 190.078125 113.734375 189.5625 113.320312 188.738281 C 112.910156 187.984375 112.910156 187.984375 113.664062 188.636719 C 114.042969 189.011719 114.382812 189.425781 114.382812 189.597656 Z M 116.4375 196.394531 C 116.4375 196.566406 116.265625 196.738281 116.0625 196.738281 C 115.890625 196.738281 115.820312 196.566406 115.925781 196.394531 C 116.027344 196.1875 116.199219 196.050781 116.300781 196.050781 C 116.371094 196.050781 116.4375 196.1875 116.4375 196.394531 Z M 111.984375 204.085938 C 111.984375 204.636719 111.027344 205.527344 110.753906 205.21875 C 110.515625 205.011719 111.371094 203.605469 111.710938 203.605469 C 111.882812 203.605469 111.984375 203.8125 111.984375 204.085938 Z M 95.71875 208.273438 C 96.027344 208.789062 96.128906 209.066406 95.925781 208.960938 C 95.546875 208.722656 94.726562 207.382812 94.964844 207.382812 C 95.066406 207.382812 95.375 207.792969 95.71875 208.273438 Z M 97.089844 210.128906 C 97.433594 210.507812 97.636719 210.816406 97.535156 210.816406 C 97.433594 210.816406 97.089844 210.507812 96.746094 210.128906 C 96.402344 209.75 96.199219 209.441406 96.300781 209.441406 C 96.402344 209.441406 96.746094 209.75 97.089844 210.128906 Z M 107.535156 213.90625 C 107.535156 214.078125 107.398438 214.25 107.226562 214.25 C 107.019531 214.25 106.78125 214.078125 106.679688 213.90625 C 106.574219 213.699219 106.710938 213.5625 106.984375 213.5625 C 107.292969 213.5625 107.535156 213.699219 107.535156 213.90625 Z M 115.582031 218.335938 C 115.480469 218.402344 115.375 218.402344 115.34375 218.335938 C 115.273438 218.265625 114.484375 217.339844 113.527344 216.308594 L 111.816406 214.421875 L 113.765625 216.273438 C 114.863281 217.304688 115.652344 218.230469 115.582031 218.335938 Z M 116.472656 219.296875 C 116.917969 219.847656 116.882812 219.878906 116.371094 219.433594 C 115.789062 218.988281 115.617188 218.714844 115.890625 218.714844 C 115.957031 218.714844 116.234375 218.988281 116.472656 219.296875 Z M 117.5 220.667969 C 117.945312 221.21875 117.910156 221.253906 117.398438 220.808594 C 116.816406 220.359375 116.644531 220.085938 116.917969 220.085938 C 116.984375 220.085938 117.261719 220.359375 117.5 220.667969 Z M 117.5 220.667969 "/>
<path style=" stroke:none;fill-rule:nonzero;fill:rgb(0%,0%,0%);fill-opacity:1;" d="M 77.019531 95.898438 C 75.238281 97.097656 74.316406 98.714844 74.316406 100.667969 C 74.316406 104.207031 75.992188 105.75 82.636719 108.1875 C 87.363281 109.941406 89.863281 111.792969 90.238281 113.820312 C 90.617188 115.847656 90 115.878906 87.535156 114.027344 C 83.835938 111.210938 79.863281 110.523438 77.433594 112.242188 C 75.238281 113.820312 75.207031 117.835938 77.398438 118.96875 C 79.863281 120.242188 81.78125 119.140625 82.535156 116.015625 C 82.875 114.609375 83.082031 114.335938 83.699219 114.335938 C 84.964844 114.335938 87.15625 116.152344 87.808594 117.734375 C 88.734375 120.101562 88.289062 123.332031 86.78125 125.011719 C 86.335938 125.492188 86.300781 125.664062 86.679688 125.664062 C 87.363281 125.664062 90.652344 121.957031 91.507812 120.207031 C 91.984375 119.210938 92.328125 117.769531 92.398438 116.292969 C 92.535156 114.300781 92.398438 113.714844 91.609375 112.101562 C 90.515625 109.835938 88.289062 108.015625 84.933594 106.609375 C 79.316406 104.273438 77.738281 103.109375 77.738281 101.355469 C 77.738281 100.257812 79.554688 98.609375 81.0625 98.335938 C 81.984375 98.164062 82.464844 98.265625 83.289062 98.882812 C 83.835938 99.296875 84.382812 99.535156 84.484375 99.433594 C 84.964844 98.953125 83.664062 96.996094 82.226562 96.101562 C 80.308594 94.867188 78.628906 94.796875 77.019531 95.898438 Z M 80.515625 117.183594 C 80.066406 117.628906 80 117.152344 80.375 116.152344 C 80.617188 115.570312 80.652344 115.570312 80.753906 116.1875 C 80.820312 116.53125 80.71875 116.976562 80.515625 117.183594 Z M 80.515625 117.183594 "/>
<path style=" stroke:none;fill-rule:nonzero;fill:rgb(0%,0%,0%);fill-opacity:1;" d="M 148.117188 97.714844 C 147.125 98.78125 146.542969 101.21875 146.917969 102.902344 C 147.292969 104.445312 147.464844 104.582031 149.28125 104.960938 C 150.136719 105.097656 150.855469 105.441406 150.957031 105.683594 C 151.027344 105.921875 150.136719 107.054688 148.972656 108.1875 C 147.808594 109.320312 146.917969 110.316406 146.984375 110.421875 C 147.261719 110.695312 150.582031 109.527344 151.710938 108.773438 C 152.363281 108.328125 153.152344 107.503906 153.492188 106.917969 C 154.417969 105.339844 153.902344 104.308594 151.746094 103.3125 C 150.789062 102.902344 150 102.421875 150 102.25 C 150 102.078125 150.308594 101.628906 150.683594 101.21875 C 151.574219 100.257812 151.609375 98.164062 150.753906 97.40625 C 149.863281 96.582031 149.074219 96.6875 148.117188 97.714844 Z M 148.117188 97.714844 "/>
<path style=" stroke:none;fill-rule:nonzero;fill:rgb(0%,0%,0%);fill-opacity:1;" d="M 166.472656 108.050781 C 164.65625 109.699219 164.484375 113.578125 166.0625 117.769531 C 167.089844 120.445312 170.546875 125.390625 170.546875 124.121094 C 170.546875 124.015625 170.101562 123.191406 169.519531 122.300781 C 167.773438 119.449219 166.371094 116.015625 166.199219 114.09375 C 166.027344 112.480469 166.097656 112.136719 166.78125 111.417969 C 167.226562 110.933594 167.910156 110.558594 168.289062 110.558594 C 169.589844 110.558594 171.816406 112.273438 173.699219 114.679688 C 175.273438 116.703125 174.863281 114.917969 173.117188 112.066406 C 171.679688 109.769531 169.554688 107.46875 168.835938 107.46875 C 168.699219 107.46875 168.320312 107.363281 168.046875 107.261719 C 167.738281 107.160156 167.089844 107.503906 166.472656 108.050781 Z M 166.472656 108.050781 "/>
<path style=" stroke:none;fill-rule:nonzero;fill:rgb(0%,0%,0%);fill-opacity:1;" d="M 186.027344 119.382812 C 184.453125 123.640625 180.820312 127.964844 173.457031 134.25 C 167.808594 139.125 164.554688 143.792969 163.5625 148.53125 C 162.84375 151.964844 163.21875 151.964844 165.238281 148.53125 C 166.984375 145.511719 169.210938 143.109375 173.765625 139.191406 C 179.179688 134.523438 181.609375 131.605469 184.007812 126.867188 C 185.101562 124.703125 186.507812 120.859375 187.125 118.351562 C 187.535156 116.667969 186.746094 117.390625 186.027344 119.382812 Z M 186.027344 119.382812 "/>
<path style=" stroke:none;fill-rule:nonzero;fill:rgb(0%,0%,0%);fill-opacity:1;" d="M 209.761719 119.691406 C 207.089844 126.109375 206.128906 134.59375 207.566406 139.261719 C 208.5625 142.523438 209.074219 143.417969 210.308594 144.066406 C 213.734375 145.820312 218.253906 139.984375 217.566406 134.660156 C 217.328125 132.839844 216.917969 132.808594 216.609375 134.59375 C 216.472656 135.382812 215.992188 136.445312 215.515625 137.03125 C 212.089844 141.082031 208.21875 137.921875 208.21875 131.054688 C 208.21875 128.34375 209.28125 122.679688 210.273438 120.171875 C 211.027344 118.214844 210.546875 117.800781 209.761719 119.691406 Z M 209.761719 119.691406 "/>
<path style=" stroke:none;fill-rule:nonzero;fill:rgb(0%,0%,0%);fill-opacity:1;" d="M 155.207031 119.589844 C 154.691406 120.136719 154.453125 120.824219 154.453125 121.75 C 154.453125 123.777344 154.828125 124.152344 155.992188 123.398438 C 157.363281 122.507812 160.035156 122.574219 162.15625 123.605469 C 164.347656 124.636719 168.734375 129.066406 169.863281 131.433594 C 170.820312 133.425781 171.402344 133.769531 171.0625 132.085938 C 170.515625 129.648438 168.628906 126.832031 165.207031 123.398438 C 161.164062 119.382812 156.917969 117.769531 155.207031 119.589844 Z M 155.207031 119.589844 "/>
<path style=" stroke:none;fill-rule:nonzero;fill:rgb(0%,0%,0%);fill-opacity:1;" d="M 107.707031 120.136719 C 107.601562 120.34375 106.164062 121.304688 104.519531 122.265625 C 100.066406 124.875 100.136719 124.773438 101.507812 126.488281 C 102.125 127.246094 103.289062 128.890625 104.109375 130.128906 C 104.933594 131.363281 105.617188 132.394531 105.652344 132.464844 C 105.71875 132.53125 111.472656 128.824219 113.117188 127.65625 C 113.699219 127.246094 113.597656 126.96875 111.234375 123.640625 C 108.734375 120.066406 108.152344 119.449219 107.707031 120.136719 Z M 108.152344 125.734375 C 108.765625 126.351562 108.664062 127.3125 107.945312 127.691406 C 106.816406 128.308594 105.957031 126.695312 106.917969 125.734375 C 107.15625 125.492188 107.433594 125.320312 107.535156 125.320312 C 107.636719 125.320312 107.910156 125.492188 108.152344 125.734375 Z M 108.152344 125.734375 "/>
<path style=" stroke:none;fill-rule:nonzero;fill:rgb(0%,0%,0%);fill-opacity:1;" d="M 93.664062 130.472656 C 90.992188 131.570312 89.898438 135.933594 91.542969 138.882812 C 92.5 140.566406 94.761719 141.972656 98.9375 143.484375 C 100.617188 144.101562 102.636719 145.03125 103.390625 145.578125 C 105.546875 147.160156 106.4375 149.425781 105.308594 150.386719 C 104.863281 150.765625 104.453125 150.523438 102.808594 148.945312 C 99.863281 146.09375 97.875 145.304688 95.582031 145.921875 C 92.125 146.847656 90.925781 151.3125 93.734375 152.824219 C 95.890625 153.992188 98.835938 152.925781 99.484375 150.796875 C 99.65625 150.179688 100 149.699219 100.238281 149.699219 C 100.925781 149.699219 102.980469 152.6875 103.664062 154.609375 C 104.074219 155.8125 104.28125 157.460938 104.28125 159.589844 C 104.28125 163.363281 104.316406 163.332031 106.710938 155.777344 C 108.046875 151.554688 108.253906 150.386719 108.082031 149.082031 C 107.707031 146.199219 104.933594 143.210938 101.472656 141.972656 C 96.816406 140.257812 94.761719 138.882812 94.347656 137.234375 C 93.800781 135.074219 96.984375 131.984375 98.871094 132.839844 C 99.625 133.183594 99.691406 133.152344 99.589844 132.464844 C 99.382812 130.882812 95.683594 129.613281 93.664062 130.472656 Z M 99.246094 149.5625 C 99.109375 150.351562 98.152344 150.902344 97.433594 150.59375 C 96.847656 150.386719 96.847656 150.351562 97.433594 149.699219 C 98.183594 148.839844 99.417969 148.773438 99.246094 149.5625 Z M 99.246094 149.5625 "/>
<path style=" stroke:none;fill-rule:nonzero;fill:rgb(0%,0%,0%);fill-opacity:1;" d="M 234.417969 144.480469 C 234.042969 145.167969 232.191406 147.363281 230.273438 149.355469 C 227.433594 152.34375 226.542969 153.546875 225.066406 156.464844 C 223.015625 160.480469 222.328125 161.03125 219.484375 161.03125 C 215.992188 161.03125 213.457031 158.421875 212.808594 154.230469 C 212.5 152.171875 211.984375 152.445312 211.984375 154.746094 C 211.984375 156.050781 212.363281 157.800781 213.21875 160.308594 C 215.820312 167.964844 217.738281 170.09375 221.847656 169.921875 L 223.765625 169.820312 L 223.664062 173.253906 C 223.628906 175.109375 223.457031 176.789062 223.289062 176.960938 C 222.808594 177.441406 221.4375 176.34375 220.34375 174.625 C 218.597656 171.847656 218.390625 172.738281 219.726562 177.375 C 220.207031 179.054688 221.128906 181.628906 221.816406 183.140625 C 223.183594 186.199219 223.492188 187.914062 222.980469 189.253906 C 222.019531 191.792969 218.835938 191.726562 217.398438 189.183594 C 216.953125 188.429688 216.507812 187.8125 216.402344 187.8125 C 216.097656 187.8125 215.753906 190.59375 215.753906 192.753906 C 215.789062 195.261719 216.300781 197.183594 217.464844 199.074219 C 218.046875 200 218.492188 200.859375 218.492188 200.996094 C 218.492188 201.40625 216.847656 201.167969 214.042969 200.34375 C 212.464844 199.863281 210.546875 199.484375 209.792969 199.484375 C 206.953125 199.519531 204.007812 201.683594 203.046875 204.53125 C 202.226562 206.867188 202.535156 211.226562 203.734375 215.109375 C 205.035156 219.191406 205.445312 223.140625 204.792969 225.441406 C 204.179688 227.640625 202.054688 229.835938 200 230.386719 C 196.644531 231.277344 193.492188 230.109375 190.582031 226.882812 C 188.152344 224.171875 188.082031 223.898438 189.316406 221.734375 C 191.847656 217.234375 192.945312 211.8125 192.910156 203.777344 C 192.910156 197.597656 192.363281 193.234375 191.097656 189.082031 C 190.273438 186.371094 189.589844 186.027344 189.828125 188.394531 C 189.964844 189.972656 189.074219 198.351562 188.320312 202.746094 C 187.328125 208.410156 185.308594 214.007812 184.042969 214.488281 C 183.628906 214.660156 182.738281 213.835938 181.78125 212.394531 C 181.609375 212.121094 181.402344 212.152344 181.097656 212.464844 C 180.753906 212.808594 180.820312 213.183594 181.507812 214.421875 C 182.535156 216.273438 182.328125 216.824219 180.136719 217.957031 C 177.980469 219.054688 175.273438 219.023438 174.144531 217.855469 C 172.707031 216.445312 173.117188 213.734375 175.066406 211.984375 C 177.019531 210.164062 179.898438 209.578125 181.4375 210.679688 C 182.191406 211.191406 182.261719 211.191406 182.707031 210.609375 C 182.980469 210.230469 183.21875 209.648438 183.21875 209.234375 C 183.253906 207.277344 181.300781 199.140625 180.789062 199.140625 C 180.617188 199.140625 180.273438 199.589844 180 200.136719 C 179.589844 200.890625 179.144531 201.167969 178.046875 201.339844 C 175.101562 201.820312 172.601562 203.640625 171.265625 206.285156 C 169.074219 210.644531 168.628906 214.488281 169.863281 218.472656 C 170.820312 221.5625 172.398438 223.726562 174.898438 225.441406 C 178.117188 227.640625 179.792969 227.777344 183.664062 226.09375 C 184.554688 225.714844 184.417969 226.472656 183.082031 229.183594 C 181.78125 231.964844 181.164062 232.582031 179.144531 233.304688 C 177.261719 233.957031 176.128906 233.957031 173.492188 233.269531 C 165.582031 231.246094 156.199219 223.109375 143.457031 207.210938 C 138.734375 201.304688 133.5625 193.234375 130.136719 186.402344 C 128.628906 183.417969 128.289062 183.726562 128.5625 187.878906 C 129.007812 194.507812 130.753906 199.964844 134.28125 206.007812 C 138.871094 213.800781 146.472656 222.59375 157.363281 232.722656 C 167.707031 242.335938 171.882812 246.867188 175.789062 252.738281 C 179.933594 258.988281 181.542969 263.863281 181.609375 270.214844 C 181.679688 276.667969 179.863281 281.167969 175.582031 285.183594 C 169.074219 291.363281 159.726562 292.015625 151.4375 286.867188 C 143.355469 281.890625 139.347656 275.125 139.382812 266.472656 C 139.417969 260.1875 140.582031 256.035156 144.828125 246.695312 C 148.492188 238.660156 148.800781 237.699219 148.765625 233.992188 C 148.765625 230.214844 147.945312 227.261719 146.234375 224.550781 C 143.183594 219.878906 140.136719 219.332031 133.664062 222.316406 C 132.261719 222.96875 131.164062 223.691406 131.164062 223.964844 C 131.164062 225.375 133.320312 225.683594 139.554688 225.097656 C 142.433594 224.824219 142.671875 224.859375 143.289062 225.546875 C 143.835938 226.164062 143.902344 226.644531 143.765625 229.597656 C 143.5625 233.234375 142.875 235.640625 138.871094 246.523438 C 135.066406 256.890625 133.734375 263.691406 133.972656 271.589844 C 134.109375 275.742188 134.316406 277.011719 135.035156 279.3125 C 136.4375 283.570312 138.800781 287.449219 141.984375 290.679688 C 146.542969 295.3125 150.957031 297.683594 157.363281 298.882812 C 161.164062 299.605469 169.246094 299.433594 172.433594 298.574219 C 182.671875 295.792969 188.699219 287.109375 188.699219 275.089844 C 188.699219 271.691406 187.636719 265.375 186.507812 262.078125 C 183.871094 254.316406 177.84375 244.976562 171.4375 238.625 C 170 237.21875 168.835938 235.949219 168.835938 235.777344 C 168.835938 235.605469 169.65625 235.914062 170.652344 236.496094 C 172.671875 237.628906 175.992188 238.867188 177.636719 239.109375 C 181.644531 239.65625 185.308594 236.667969 187.15625 231.3125 C 187.671875 229.871094 188.152344 228.667969 188.21875 228.667969 C 188.253906 228.667969 188.765625 229.492188 189.347656 230.453125 C 190.753906 232.960938 193.597656 236.050781 195.410156 237.117188 C 197.292969 238.214844 200.683594 239.3125 202.261719 239.3125 C 204.65625 239.3125 206.507812 238.59375 208.320312 236.910156 C 212.398438 233.167969 212.945312 229.597656 210.925781 219.570312 C 209.964844 214.765625 210.136719 213.046875 211.882812 211.125 C 213.527344 209.304688 215.207031 208.859375 217.808594 209.578125 C 221.300781 210.574219 222.910156 210.128906 223.835938 207.863281 C 224.453125 206.386719 224.417969 203.671875 223.800781 202.574219 C 223.015625 201.167969 223.152344 200.207031 224.210938 199.792969 C 226.644531 198.867188 227.738281 196.738281 227.738281 193.066406 C 227.738281 191.003906 227.535156 189.90625 226.882812 188.328125 C 225.753906 185.613281 225.789062 185.40625 227.226562 185.40625 C 229.179688 185.40625 230.136719 184.207031 230.136719 181.734375 C 230.136719 180.636719 229.828125 178.574219 229.453125 177.167969 C 228.628906 174.042969 228.597656 171.8125 229.28125 168.308594 C 230.273438 163.363281 232.089844 160.582031 236.0625 157.871094 C 238.9375 155.914062 239.074219 155.433594 237.738281 151.621094 C 237.15625 149.90625 236.402344 147.398438 236.097656 146.09375 C 235.789062 144.753906 235.410156 143.589844 235.308594 143.449219 C 235.171875 143.3125 234.792969 143.757812 234.417969 144.480469 Z M 223.835938 163.363281 C 223.355469 163.847656 223.289062 163.847656 223.289062 163.398438 C 223.289062 162.714844 224.074219 161.890625 224.28125 162.4375 C 224.347656 162.644531 224.144531 163.054688 223.835938 163.363281 Z M 218.425781 167.039062 C 219.109375 167.519531 219.484375 167.898438 219.28125 167.898438 C 218.699219 167.898438 216.78125 166.179688 216.816406 165.734375 C 216.816406 165.460938 216.882812 165.460938 217.019531 165.769531 C 217.125 166.007812 217.738281 166.59375 218.425781 167.039062 Z M 227.945312 179.433594 C 227.84375 179.742188 227.738281 180.050781 227.738281 180.121094 C 227.738281 180.1875 227.5 180.257812 227.226562 180.257812 C 226.78125 180.257812 226.78125 180.152344 227.125 179.570312 C 227.636719 178.746094 228.253906 178.644531 227.945312 179.433594 Z M 229.109375 182.316406 C 229.109375 182.488281 228.972656 182.660156 228.765625 182.660156 C 228.597656 182.660156 228.425781 182.488281 228.425781 182.316406 C 228.425781 182.109375 228.597656 181.972656 228.765625 181.972656 C 228.972656 181.972656 229.109375 182.109375 229.109375 182.316406 Z M 221.0625 201.203125 C 221.402344 201.578125 221.609375 201.890625 221.507812 201.890625 C 221.402344 201.890625 221.0625 201.578125 220.71875 201.203125 C 220.375 200.824219 220.171875 200.515625 220.273438 200.515625 C 220.375 200.515625 220.71875 200.824219 221.0625 201.203125 Z M 210.789062 201.890625 C 210.890625 202.058594 210.683594 202.230469 210.273438 202.230469 C 208.082031 202.230469 205.957031 204.53125 204.898438 208.066406 L 204.453125 209.613281 L 204.625 207.964844 C 204.933594 204.976562 206.679688 202.644531 209.179688 201.890625 C 210.445312 201.511719 210.546875 201.511719 210.789062 201.890625 Z M 176.710938 206.488281 C 176.710938 206.558594 176.128906 207.039062 175.445312 207.554688 L 174.144531 208.480469 L 175.273438 207.417969 C 176.300781 206.421875 176.710938 206.144531 176.710938 206.488281 Z M 222.601562 206.832031 C 222.601562 207.449219 221.644531 208.242188 221.300781 207.898438 C 221.164062 207.757812 221.265625 207.554688 221.507812 207.484375 C 221.710938 207.382812 221.917969 207.109375 221.917969 206.832031 C 221.917969 206.558594 222.089844 206.351562 222.261719 206.351562 C 222.464844 206.351562 222.601562 206.558594 222.601562 206.832031 Z M 212.328125 207.519531 C 212.328125 207.589844 211.917969 207.898438 211.402344 208.207031 L 210.445312 208.789062 L 211.265625 208.101562 C 212.054688 207.382812 212.328125 207.246094 212.328125 207.519531 Z M 187.707031 214.832031 C 187.328125 215.554688 187.019531 216.035156 186.984375 215.898438 C 186.984375 215.484375 188.117188 213.21875 188.289062 213.355469 C 188.355469 213.425781 188.082031 214.078125 187.707031 214.832031 Z M 145.582031 217.921875 C 146.027344 218.472656 145.992188 218.507812 145.480469 218.058594 C 145.136719 217.820312 144.863281 217.546875 144.863281 217.476562 C 144.863281 217.203125 145.136719 217.375 145.582031 217.921875 Z M 183.664062 222.078125 C 182.945312 222.25 182.808594 222.007812 183.082031 220.910156 L 183.320312 219.914062 L 183.765625 220.945312 C 184.109375 221.800781 184.109375 222.007812 183.664062 222.078125 Z M 181.507812 220.910156 C 181.507812 220.976562 181.265625 221.152344 180.957031 221.253906 C 180.683594 221.355469 180.546875 221.320312 180.652344 221.117188 C 180.855469 220.773438 181.507812 220.636719 181.507812 220.910156 Z M 142.292969 222.558594 C 143.457031 223.074219 143.390625 223.554688 142.191406 223.210938 C 141.199219 222.902344 138.320312 223.210938 136.300781 223.828125 C 134.074219 224.515625 132.84375 224 134.863281 223.246094 C 137.601562 222.144531 140.753906 221.835938 142.292969 222.558594 Z M 210.480469 229.90625 C 210.238281 230.832031 209.761719 232.171875 209.417969 232.890625 C 208.734375 234.371094 206.402344 236.566406 205.546875 236.566406 C 205.171875 236.566406 205.308594 236.359375 206.027344 235.914062 C 207.773438 234.847656 209.210938 232.753906 209.964844 230.285156 C 210.789062 227.605469 211.164062 227.332031 210.480469 229.90625 Z M 163.015625 230.59375 C 163.015625 230.867188 162.875 231.003906 162.671875 230.902344 C 162.5 230.796875 162.328125 230.558594 162.328125 230.351562 C 162.328125 230.179688 162.5 230.042969 162.671875 230.042969 C 162.875 230.042969 163.015625 230.285156 163.015625 230.59375 Z M 183.21875 234.609375 L 182.054688 235.707031 L 183.082031 234.472656 C 183.628906 233.785156 184.144531 233.304688 184.210938 233.375 C 184.316406 233.441406 183.871094 233.992188 183.21875 234.609375 Z M 145.546875 237.460938 C 144.964844 239.175781 144.726562 238.660156 145.238281 236.910156 C 145.480469 236.085938 145.753906 235.605469 145.820312 235.8125 C 145.890625 236.050781 145.753906 236.773438 145.546875 237.460938 Z M 174.484375 246.867188 C 174.828125 247.246094 175.035156 247.554688 174.933594 247.554688 C 174.828125 247.554688 174.484375 247.246094 174.144531 246.867188 C 173.800781 246.488281 173.597656 246.179688 173.699219 246.179688 C 173.800781 246.179688 174.144531 246.488281 174.484375 246.867188 Z M 177.054688 250.300781 C 177.464844 250.847656 177.707031 251.332031 177.601562 251.332031 C 177.535156 251.332031 177.125 250.847656 176.710938 250.300781 C 176.300781 249.714844 176.0625 249.269531 176.164062 249.269531 C 176.234375 249.269531 176.644531 249.714844 177.054688 250.300781 Z M 179.898438 254.765625 C 180.445312 255.691406 180.789062 256.480469 180.71875 256.480469 C 180.617188 256.480469 180.101562 255.757812 179.589844 254.832031 C 179.074219 253.941406 178.425781 252.839844 178.152344 252.359375 L 177.671875 251.503906 L 178.289062 252.257812 C 178.664062 252.703125 179.382812 253.800781 179.898438 254.765625 Z M 183.253906 261.871094 C 183.597656 262.933594 183.902344 264.035156 183.902344 264.34375 C 183.871094 264.652344 183.527344 263.792969 183.082031 262.488281 C 182.636719 261.152344 182.15625 259.777344 182.054688 259.398438 C 181.816406 258.78125 181.847656 258.78125 182.191406 259.332031 C 182.398438 259.640625 182.875 260.808594 183.253906 261.871094 Z M 138.320312 282.402344 C 138.9375 283.707031 139.28125 284.636719 139.074219 284.464844 C 138.390625 283.742188 136.335938 279.175781 135.820312 277.183594 C 134.964844 273.921875 135.238281 273.855469 136.265625 277.082031 C 136.78125 278.695312 137.707031 281.066406 138.320312 282.402344 Z M 141.953125 282.09375 C 142.261719 282.609375 142.363281 282.882812 142.15625 282.78125 C 141.78125 282.539062 140.957031 281.203125 141.199219 281.203125 C 141.300781 281.203125 141.609375 281.613281 141.953125 282.09375 Z M 180.992188 291.847656 C 180.617188 292.429688 177.363281 294.933594 176.984375 294.933594 C 176.78125 294.933594 177.226562 294.488281 177.945312 293.941406 C 178.664062 293.425781 179.65625 292.566406 180.101562 292.050781 C 180.890625 291.191406 181.472656 291.054688 180.992188 291.847656 Z M 180.992188 291.847656 "/>
<path style=" stroke:none;fill-rule:nonzero;fill:rgb(0%,0%,0%);fill-opacity:1;" d="M 75.171875 153.683594 C 74.792969 153.957031 73.21875 154.917969 71.644531 155.777344 C 70.066406 156.636719 68.699219 157.527344 68.628906 157.769531 C 68.527344 158.007812 69.316406 159.554688 70.34375 161.234375 C 71.402344 162.917969 72.363281 164.53125 72.535156 164.808594 C 72.773438 165.21875 73.5625 164.945312 76.917969 163.191406 C 79.144531 162.027344 80.992188 160.859375 80.957031 160.617188 C 80.925781 160.035156 76.4375 153.132812 76.097656 153.132812 C 75.957031 153.132812 75.546875 153.40625 75.171875 153.683594 Z M 76.027344 158.453125 C 76.679688 159.246094 76.300781 160.171875 75.34375 160.171875 C 74.691406 160.171875 74.453125 159.964844 74.382812 159.347656 C 74.210938 158.144531 75.273438 157.527344 76.027344 158.453125 Z M 76.027344 158.453125 "/>
<path style=" stroke:none;fill-rule:nonzero;fill:rgb(0%,0%,0%);fill-opacity:1;" d="M 80.753906 165.253906 C 78.765625 166.421875 77.019531 167.484375 76.882812 167.621094 C 76.710938 167.792969 80.066406 173.21875 81.0625 174.386719 C 81.335938 174.730469 89.726562 170.09375 89.554688 169.714844 C 89.210938 168.789062 85.066406 163.089844 84.761719 163.125 C 84.589844 163.160156 82.773438 164.121094 80.753906 165.253906 Z M 84.589844 168.066406 C 85.207031 168.824219 84.863281 169.785156 83.9375 169.785156 C 82.84375 169.785156 82.261719 168.824219 82.84375 168.101562 C 83.425781 167.417969 84.042969 167.417969 84.589844 168.066406 Z M 84.589844 168.066406 "/>
<path style=" stroke:none;fill-rule:nonzero;fill:rgb(0%,0%,0%);fill-opacity:1;" d="M 206.335938 171.332031 C 204.28125 172.429688 202.433594 173.5625 202.261719 173.835938 C 202.054688 174.144531 202.671875 175.417969 204.28125 178.058594 C 205.582031 180.121094 206.679688 181.871094 206.746094 181.972656 C 206.816406 182.042969 208.800781 181.152344 211.164062 179.984375 L 215.410156 177.855469 L 213.664062 175.003906 C 212.671875 173.460938 211.507812 171.535156 211.0625 170.714844 C 210.582031 169.921875 210.207031 169.269531 210.171875 169.304688 C 210.136719 169.339844 208.425781 170.230469 206.335938 171.332031 Z M 210.480469 175.519531 C 210.789062 176.515625 209.792969 177.476562 208.972656 176.960938 C 208.152344 176.445312 208.046875 175.417969 208.734375 174.902344 C 209.453125 174.351562 210.171875 174.625 210.480469 175.519531 Z M 210.480469 175.519531 "/>
<path style=" stroke:none;fill-rule:nonzero;fill:rgb(0%,0%,0%);fill-opacity:1;" d="M 196.574219 174.078125 C 195.546875 174.660156 193.492188 175.726562 192.019531 176.515625 C 190.207031 177.441406 189.382812 178.058594 189.519531 178.371094 C 189.726562 178.953125 193.320312 185.03125 193.902344 185.820312 C 194.316406 186.371094 194.726562 186.230469 198.902344 183.964844 C 201.371094 182.59375 203.425781 181.390625 203.425781 181.285156 C 203.425781 180.875 199.042969 173.253906 198.765625 173.152344 C 198.597656 173.082031 197.601562 173.527344 196.574219 174.078125 Z M 198.597656 179.023438 C 199.347656 179.914062 197.945312 181.390625 196.917969 180.773438 C 196.542969 180.53125 196.4375 179.125 196.816406 178.78125 C 197.191406 178.371094 198.183594 178.507812 198.597656 179.023438 Z M 198.597656 179.023438 "/>
<path style=" stroke:none;fill-rule:nonzero;fill:rgb(0%,0%,0%);fill-opacity:1;" d="M 175.515625 181.183594 C 171.402344 182.078125 167.398438 185.75 165.035156 190.730469 C 164.074219 192.722656 163.699219 195.023438 164.347656 195.023438 C 164.519531 195.023438 165.066406 194.335938 165.546875 193.511719 C 166.027344 192.6875 167.089844 191.417969 167.875 190.730469 C 170.753906 188.292969 177.054688 185.890625 177.054688 187.226562 C 177.054688 188.152344 173.082031 193.714844 170.582031 196.328125 C 168.492188 198.523438 168.289062 198.832031 168.835938 199.140625 C 170.546875 200.066406 176.917969 192.890625 178.597656 188.152344 C 179.28125 186.230469 179.347656 183.382812 178.734375 182.386719 C 178.390625 181.835938 176.4375 180.738281 176.234375 180.976562 C 176.199219 181.011719 175.890625 181.082031 175.515625 181.183594 Z M 177.566406 184.035156 C 177.671875 184.207031 177.535156 184.378906 177.261719 184.378906 C 176.953125 184.378906 176.710938 184.207031 176.710938 184.035156 C 176.710938 183.828125 176.847656 183.691406 177.019531 183.691406 C 177.226562 183.691406 177.464844 183.828125 177.566406 184.035156 Z M 173.835938 185.03125 C 173.734375 185.203125 173.289062 185.40625 172.875 185.511719 C 172.125 185.714844 172.125 185.683594 172.738281 185.234375 C 173.492188 184.652344 174.109375 184.550781 173.835938 185.03125 Z M 173.835938 185.03125 "/>
<path style=" stroke:none;fill-rule:nonzero;fill:rgb(0%,0%,0%);fill-opacity:1;" d="M 201.917969 184.890625 C 199.691406 186.09375 197.773438 187.191406 197.671875 187.261719 C 197.601562 187.363281 198.117188 188.359375 198.835938 189.492188 C 199.589844 190.625 200.582031 192.242188 201.097656 193.097656 L 202.054688 194.679688 L 205.753906 192.722656 C 207.808594 191.621094 209.828125 190.488281 210.238281 190.214844 L 211.027344 189.699219 L 209.691406 187.640625 C 208.9375 186.507812 207.945312 184.925781 207.5 184.136719 C 207.054688 183.3125 206.542969 182.660156 206.335938 182.660156 C 206.164062 182.660156 204.179688 183.65625 201.917969 184.890625 Z M 206.128906 187.605469 C 206.917969 188.566406 205.546875 189.941406 204.589844 189.152344 C 204.007812 188.667969 203.972656 187.570312 204.554688 187.363281 C 205.308594 187.054688 205.71875 187.125 206.128906 187.605469 Z M 206.128906 187.605469 "/>
<path style=" stroke:none;fill-rule:nonzero;fill:rgb(0%,0%,0%);fill-opacity:1;" d="M 91.609375 220.910156 C 90.308594 224.035156 89.65625 228.050781 89.792969 231.964844 C 89.933594 235.433594 90.035156 236.015625 91.0625 238.078125 C 92.398438 240.789062 93.457031 241.714844 95.273438 241.714844 C 97.019531 241.714844 98.117188 240.960938 98.765625 239.277344 C 99.382812 237.769531 99.519531 232.960938 98.972656 232.617188 C 98.765625 232.515625 98.628906 232.753906 98.628906 233.203125 C 98.628906 234.230469 97.5 236.085938 96.542969 236.566406 C 95.515625 237.117188 93.5625 236.773438 92.566406 235.8125 C 90.617188 233.957031 90.273438 228.53125 91.78125 222.625 C 92.535156 219.742188 92.433594 218.917969 91.609375 220.910156 Z M 91.609375 220.910156 "/>
<path style=" stroke:none;fill-rule:nonzero;fill:rgb(0%,0%,0%);fill-opacity:1;" d="M 157.566406 245.21875 C 154.484375 251.914062 153.425781 256.480469 153.425781 263.003906 C 153.425781 269.183594 154.589844 273.339844 157.226562 276.496094 C 158.457031 277.972656 160.515625 279.140625 161.917969 279.140625 C 163.527344 279.140625 165.136719 277.800781 165.890625 275.878906 C 166.4375 274.507812 166.574219 273.269531 166.574219 269.5625 C 166.609375 266.164062 166.507812 264.925781 166.199219 264.824219 C 165.890625 264.722656 165.753906 265.167969 165.753906 266.507812 C 165.753906 270.351562 164.246094 272.617188 161.710938 272.617188 C 159.761719 272.617188 158.183594 271.347656 156.78125 268.601562 C 153.628906 262.59375 154.179688 255.863281 158.597656 245.734375 C 159.347656 244.085938 159.933594 242.644531 159.933594 242.574219 C 159.933594 242.472656 159.691406 242.402344 159.382812 242.402344 C 159.042969 242.402344 158.390625 243.46875 157.566406 245.21875 Z M 157.566406 245.21875 "/>
</g>
</svg>
